<svg width="17" height="16" viewBox="0 0 17 16" fill="none" xmlns="http://www.w3.org/2000/svg">
<g clip-path="url(#clip0_2017_376)">
<path d="M0.5 12V3.33329C0.5 1.86263 1.696 0.666626 3.16667 0.666626H4.5C4.80933 0.666626 5.11867 0.739293 5.39467 0.877293L7.498 1.92929C7.59 1.97529 7.69333 1.99929 7.796 1.99929H11.1667C13.0047 1.99929 14.5 3.49463 14.5 5.33263H7.18267C5.424 5.33263 3.84733 6.50996 3.34667 8.20129L1.56467 14.4273C0.913333 13.8186 0.5 12.9593 0.5 12ZM16.162 7.34463C15.8427 6.91596 15.356 6.66996 14.8233 6.66129C14.8133 6.66129 14.8053 6.66663 14.7953 6.66663H7.18267C6.01067 6.66663 4.95933 7.45129 4.62667 8.57463L2.748 15.1366C3.09 15.2553 3.45133 15.3333 3.83333 15.3333H12.2053C13.6893 15.3333 14.972 14.3786 15.4067 12.9286L16.428 8.85129C16.584 8.32996 16.4867 7.78129 16.162 7.34463Z" fill="#989FA6"/>
</g>
<defs>
<clipPath id="clip0_2017_376">
<rect width="16" height="16" fill="white" transform="translate(0.5)"/>
</clipPath>
</defs>
</svg>
