<svg width="356" height="80" viewBox="0 0 356 80" fill="none" xmlns="http://www.w3.org/2000/svg">
<rect width="80" height="80" rx="40" fill="#F1F3F5"/>
<g clip-path="url(#clip0_1_1311)">
<path d="M29.172 47.119C28.4218 47.869 28.0002 48.8862 28 49.947V52H30.053C31.1138 51.9998 32.131 51.5782 32.881 50.828L46.224 37.485L42.515 33.776L29.172 47.119Z" fill="#141516"/>
<path d="M51.1457 28.855C50.9022 28.6112 50.613 28.4178 50.2947 28.2859C49.9764 28.154 49.6352 28.0861 49.2907 28.0861C48.9461 28.0861 48.605 28.154 48.2867 28.2859C47.9684 28.4178 47.6792 28.6112 47.4357 28.855L43.9297 32.362L47.6387 36.071L51.1457 32.565C51.3895 32.3215 51.5828 32.0323 51.7148 31.714C51.8467 31.3957 51.9146 31.0545 51.9146 30.71C51.9146 30.3654 51.8467 30.0243 51.7148 29.706C51.5828 29.3877 51.3895 29.0985 51.1457 28.855Z" fill="#141516"/>
</g>
<rect x="92" width="80" height="80" rx="40" fill="#F1F3F5"/>
<g clip-path="url(#clip1_1_1311)">
<path d="M128.852 45.7C130.609 47.4574 133.458 47.4574 135.216 45.7L135.216 45.7L138.428 42.488C139.024 41.9125 139.04 40.9629 138.465 40.367C137.889 39.7711 136.94 39.7546 136.344 40.3301C136.331 40.3422 136.319 40.3545 136.307 40.367L133.524 43.149L133.501 29.5C133.501 28.6716 132.829 28 132.001 28C131.172 28 130.501 28.6716 130.501 29.5L130.522 43.127L127.761 40.366C127.165 39.7905 126.215 39.807 125.64 40.4028C125.078 40.9841 125.078 41.9057 125.64 42.487L128.852 45.7Z" fill="#141516"/>
<path d="M142.5 42.5C141.672 42.5 141 43.1716 141 44V48.591C140.999 48.8166 140.817 48.9995 140.591 49H123.409C123.183 48.9994 123.001 48.8166 123 48.591V44C123 43.1716 122.328 42.5 121.5 42.5C120.672 42.5 120 43.1716 120 44V48.591C120.002 50.4728 121.527 51.9978 123.409 52H140.591C142.473 51.9978 143.998 50.4728 144 48.591V44C144 43.1716 143.328 42.5 142.5 42.5Z" fill="#141516"/>
</g>
<rect x="184" width="80" height="80" rx="40" fill="#F1F3F5"/>
<g clip-path="url(#clip2_1_1311)">
<path d="M212 39.9859C211.99 42.5503 214.06 44.6374 216.625 44.6476C217.806 44.6523 218.944 44.2068 219.808 43.4017L226.728 46.5259C226.68 46.7846 226.653 47.0468 226.649 47.31C226.641 49.892 228.727 51.9918 231.309 52C233.892 52.0082 235.991 49.9216 236 47.3395C236.008 44.7575 233.921 42.6577 231.339 42.6495C229.796 42.6446 228.351 43.4011 227.475 44.6712L220.974 41.7358C221.436 40.6208 221.438 39.3684 220.979 38.252L227.471 35.3016C228.933 37.416 231.832 37.9448 233.946 36.4829C236.061 35.0211 236.589 32.122 235.128 30.0077C233.666 27.8934 230.767 27.3645 228.652 28.8264C227.393 29.697 226.643 31.1311 226.645 32.6619C226.649 32.9254 226.676 33.188 226.725 33.447L219.823 36.5831C217.954 34.8273 215.014 34.9198 213.259 36.7896C212.446 37.6551 211.996 38.7988 212 39.9859Z" fill="#141516"/>
</g>
<rect x="276" width="80" height="80" rx="40" fill="#F1F3F5"/>
<g clip-path="url(#clip3_1_1311)">
<path d="M321.501 29.917C320.375 29.9345 319.273 30.2488 318.308 30.8283C317.342 31.4077 316.546 32.2317 316.001 33.217C315.456 32.2317 314.66 31.4077 313.694 30.8283C312.728 30.2488 311.627 29.9345 310.501 29.917C308.706 29.995 307.015 30.7802 305.797 32.1012C304.579 33.4222 303.933 35.1715 304.001 36.967C304.001 41.514 308.787 46.48 312.801 49.847C313.697 50.6001 314.83 51.013 316.001 51.013C317.172 51.013 318.305 50.6001 319.201 49.847C323.215 46.48 328.001 41.514 328.001 36.967C328.069 35.1715 327.423 33.4222 326.205 32.1012C324.987 30.7802 323.296 29.995 321.501 29.917ZM317.916 48.317C317.38 48.7684 316.702 49.0159 316.001 49.0159C315.3 49.0159 314.622 48.7684 314.086 48.317C308.948 44.006 306.001 39.87 306.001 36.967C305.933 35.7017 306.367 34.4607 307.21 33.5147C308.053 32.5687 309.236 31.9943 310.501 31.917C311.766 31.9943 312.949 32.5687 313.792 33.5147C314.635 34.4607 315.069 35.7017 315.001 36.967C315.001 37.2322 315.106 37.4866 315.294 37.6741C315.481 37.8616 315.736 37.967 316.001 37.967C316.266 37.967 316.521 37.8616 316.708 37.6741C316.896 37.4866 317.001 37.2322 317.001 36.967C316.933 35.7017 317.367 34.4607 318.21 33.5147C319.053 32.5687 320.236 31.9943 321.501 31.917C322.766 31.9943 323.949 32.5687 324.792 33.5147C325.635 34.4607 326.069 35.7017 326.001 36.967C326.001 39.87 323.054 44.006 317.916 48.313V48.317Z" fill="#141516"/>
</g>
<defs>
<clipPath id="clip0_1_1311">
<rect width="24" height="24" fill="white" transform="translate(28 28)"/>
</clipPath>
<clipPath id="clip1_1_1311">
<rect width="24" height="24" fill="white" transform="translate(120 28)"/>
</clipPath>
<clipPath id="clip2_1_1311">
<rect width="24" height="24" fill="white" transform="translate(212 28)"/>
</clipPath>
<clipPath id="clip3_1_1311">
<rect width="24" height="24" fill="white" transform="translate(304 28)"/>
</clipPath>
</defs>
</svg>
