<svg width="60" height="60" viewBox="0 0 60 60" fill="none" xmlns="http://www.w3.org/2000/svg">
<rect x="1" y="1" width="58" height="58" rx="29" stroke="#F1F3F5" stroke-width="2"/>
<g clip-path="url(#clip0_346_1890)">
<path d="M20 35.8333C20.0013 36.938 20.4407 37.997 21.2218 38.7782C22.003 39.5593 23.062 39.9987 24.1667 40H35.8333C36.938 39.9987 37.997 39.5593 38.7782 38.7782C39.5593 37.997 39.9987 36.938 40 35.8333V28.3333H20V35.8333ZM34.1667 32.0833C34.4139 32.0833 34.6556 32.1567 34.8611 32.294C35.0667 32.4314 35.2269 32.6266 35.3215 32.855C35.4161 33.0834 35.4409 33.3347 35.3926 33.5772C35.3444 33.8197 35.2254 34.0424 35.0505 34.2172C34.8757 34.392 34.653 34.5111 34.4105 34.5593C34.1681 34.6076 33.9167 34.5828 33.6883 34.4882C33.4599 34.3936 33.2647 34.2334 33.1273 34.0278C32.99 33.8222 32.9167 33.5806 32.9167 33.3333C32.9167 33.0018 33.0484 32.6839 33.2828 32.4495C33.5172 32.215 33.8351 32.0833 34.1667 32.0833ZM30 32.0833C30.2472 32.0833 30.4889 32.1567 30.6945 32.294C30.9 32.4314 31.0602 32.6266 31.1548 32.855C31.2495 33.0834 31.2742 33.3347 31.226 33.5772C31.1777 33.8197 31.0587 34.0424 30.8839 34.2172C30.7091 34.392 30.4863 34.5111 30.2439 34.5593C30.0014 34.6076 29.7501 34.5828 29.5216 34.4882C29.2932 34.3936 29.098 34.2334 28.9607 34.0278C28.8233 33.8222 28.75 33.5806 28.75 33.3333C28.75 33.0018 28.8817 32.6839 29.1161 32.4495C29.3505 32.215 29.6685 32.0833 30 32.0833ZM25.8333 32.0833C26.0806 32.0833 26.3222 32.1567 26.5278 32.294C26.7334 32.4314 26.8936 32.6266 26.9882 32.855C27.0828 33.0834 27.1075 33.3347 27.0593 33.5772C27.0111 33.8197 26.892 34.0424 26.7172 34.2172C26.5424 34.392 26.3197 34.5111 26.0772 34.5593C25.8347 34.6076 25.5834 34.5828 25.355 34.4882C25.1266 34.3936 24.9313 34.2334 24.794 34.0278C24.6566 33.8222 24.5833 33.5806 24.5833 33.3333C24.5833 33.0018 24.715 32.6839 24.9494 32.4495C25.1839 32.215 25.5018 32.0833 25.8333 32.0833Z" fill="#989FA6"/>
<path d="M35.8333 21.6667H35V20.8333C35 20.6123 34.9122 20.4004 34.7559 20.2441C34.5996 20.0878 34.3877 20 34.1667 20C33.9457 20 33.7337 20.0878 33.5774 20.2441C33.4211 20.4004 33.3333 20.6123 33.3333 20.8333V21.6667H26.6667V20.8333C26.6667 20.6123 26.5789 20.4004 26.4226 20.2441C26.2663 20.0878 26.0543 20 25.8333 20C25.6123 20 25.4004 20.0878 25.2441 20.2441C25.0878 20.4004 25 20.6123 25 20.8333V21.6667H24.1667C23.062 21.668 22.003 22.1074 21.2218 22.8885C20.4407 23.6696 20.0013 24.7287 20 25.8333V26.6667H40V25.8333C39.9987 24.7287 39.5593 23.6696 38.7782 22.8885C37.997 22.1074 36.938 21.668 35.8333 21.6667Z" fill="#989FA6"/>
</g>
<defs>
<clipPath id="clip0_346_1890">
<rect width="20" height="20" fill="white" transform="translate(20 20)"/>
</clipPath>
</defs>
</svg>
