<svg width="22" height="22" viewBox="0 0 22 22" fill="none" xmlns="http://www.w3.org/2000/svg">
<path d="M21 1C20.6875 0.68755 20.2636 0.512024 19.8217 0.512024C19.3797 0.512024 18.9559 0.68755 18.6433 1L11 8.64334L3.35667 1C3.04412 0.68755 2.62028 0.512024 2.17833 0.512024C1.73639 0.512024 1.31255 0.68755 1 1C0.68755 1.31255 0.512024 1.73639 0.512024 2.17833C0.512024 2.62028 0.68755 3.04412 1 3.35667L8.64334 11L1 18.6433C0.68755 18.9559 0.512024 19.3797 0.512024 19.8217C0.512024 20.2636 0.68755 20.6875 1 21C1.31255 21.3125 1.73639 21.488 2.17833 21.488C2.62028 21.488 3.04412 21.3125 3.35667 21L11 13.3567L18.6433 21C18.9559 21.3125 19.3797 21.488 19.8217 21.488C20.2636 21.488 20.6875 21.3125 21 21C21.3125 20.6875 21.488 20.2636 21.488 19.8217C21.488 19.3797 21.3125 18.9559 21 18.6433L13.3567 11L21 3.35667C21.3125 3.04412 21.488 2.62028 21.488 2.17833C21.488 1.73639 21.3125 1.31255 21 1Z" fill="#141516"/>
</svg>
