<svg width="80" height="80" viewBox="0 0 80 80" fill="none" xmlns="http://www.w3.org/2000/svg">
<rect width="80" height="80" rx="40" fill="#F1F3F5"/>
<g clip-path="url(#clip0_1_260)">
<path d="M45.5009 29.917C44.3749 29.9345 43.2734 30.2488 42.3077 30.8283C41.342 31.4077 40.5463 32.2317 40.0009 33.217C39.4556 32.2317 38.6599 31.4077 37.6942 30.8283C36.7285 30.2488 35.627 29.9345 34.5009 29.917C32.7059 29.995 31.0146 30.7802 29.7967 32.1012C28.5788 33.4222 27.9332 35.1715 28.0009 36.967C28.0009 41.514 32.7869 46.48 36.8009 49.847C37.6972 50.6001 38.8303 51.013 40.0009 51.013C41.1716 51.013 42.3047 50.6001 43.2009 49.847C47.2149 46.48 52.0009 41.514 52.0009 36.967C52.0687 35.1715 51.4231 33.4222 50.2052 32.1012C48.9872 30.7802 47.296 29.995 45.5009 29.917ZM41.9159 48.317C41.3799 48.7684 40.7017 49.0159 40.0009 49.0159C39.3002 49.0159 38.622 48.7684 38.0859 48.317C32.9479 44.006 30.0009 39.87 30.0009 36.967C29.9326 35.7017 30.3673 34.4607 31.2103 33.5147C32.0533 32.5687 33.2362 31.9943 34.5009 31.917C35.7657 31.9943 36.9486 32.5687 37.7916 33.5147C38.6346 34.4607 39.0693 35.7017 39.0009 36.967C39.0009 37.2322 39.1063 37.4866 39.2938 37.6741C39.4814 37.8616 39.7357 37.967 40.0009 37.967C40.2662 37.967 40.5205 37.8616 40.708 37.6741C40.8956 37.4866 41.0009 37.2322 41.0009 36.967C40.9326 35.7017 41.3673 34.4607 42.2103 33.5147C43.0533 32.5687 44.2362 31.9943 45.5009 31.917C46.7657 31.9943 47.9486 32.5687 48.7916 33.5147C49.6346 34.4607 50.0693 35.7017 50.0009 36.967C50.0009 39.87 47.0539 44.006 41.9159 48.313V48.317Z" fill="#141516"/>
</g>
<defs>
<clipPath id="clip0_1_260">
<rect width="24" height="24" fill="white" transform="translate(28 28)"/>
</clipPath>
</defs>
</svg>
