<svg width="20" height="20" viewBox="0 0 20 20" fill="none" xmlns="http://www.w3.org/2000/svg">
<g clip-path="url(#clip0_1_737)">
<path d="M15.7518 13.98C17.0822 12.202 17.6897 9.98602 17.452 7.77812C17.2143 5.57022 16.1491 3.53433 14.4707 2.08027C12.7923 0.626214 10.6253 -0.138053 8.40611 -0.0586842C6.18687 0.0206847 4.08008 0.937796 2.50984 2.50804C0.939597 4.07828 0.0224853 6.18507 -0.0568836 8.40431C-0.136253 10.6235 0.628014 12.7905 2.08207 14.4689C3.53613 16.1473 5.57202 17.2125 7.77992 17.4502C9.98782 17.6879 12.2038 17.0804 13.9818 15.75L18.2318 20L20.0018 18.2333L15.7518 13.98ZM8.75179 15C7.51565 15 6.30728 14.6334 5.27947 13.9467C4.25167 13.2599 3.45059 12.2838 2.97754 11.1418C2.50449 9.99972 2.38072 8.74305 2.62188 7.53067C2.86304 6.31829 3.45829 5.20465 4.33237 4.33057C5.20645 3.45649 6.32009 2.86124 7.53247 2.62008C8.74485 2.37892 10.0015 2.50269 11.1436 2.97574C12.2856 3.44879 13.2617 4.24987 13.9485 5.27767C14.6352 6.30548 15.0018 7.51385 15.0018 8.74999C15.0002 10.4071 14.3413 11.9959 13.1695 13.1677C11.9977 14.3395 10.4089 14.9984 8.75179 15Z" fill="#989FA6"/>
</g>
<defs>
<clipPath id="clip0_1_737">
<rect width="20" height="20" fill="white"/>
</clipPath>
</defs>
</svg>
