<svg width="80" height="80" viewBox="0 0 80 80" fill="none" xmlns="http://www.w3.org/2000/svg">
<rect width="80" height="80" rx="40" fill="#F1F3F5"/>
<g clip-path="url(#clip0_1_256)">
<path d="M28 39.9859C27.9898 42.5503 30.0604 44.6374 32.6249 44.6476C33.8059 44.6523 34.9443 44.2068 35.8084 43.4017L42.7279 46.5259C42.6798 46.7846 42.6535 47.0468 42.649 47.31C42.6409 49.892 44.7274 51.9918 47.3095 52C49.8916 52.0082 51.9913 49.9216 51.9995 47.3395C52.0077 44.7575 49.9212 42.6577 47.3391 42.6495C45.7964 42.6446 44.3506 43.4011 43.475 44.6712L36.974 41.7358C37.4358 40.6208 37.4376 39.3684 36.979 38.252L43.4711 35.3016C44.9329 37.416 47.832 37.9448 49.9463 36.4829C52.0607 35.0211 52.5895 32.122 51.1276 30.0077C49.6657 27.8934 46.7666 27.3645 44.6523 28.8264C43.3932 29.697 42.6426 31.1311 42.645 32.6619C42.6492 32.9254 42.676 33.188 42.7249 33.447L35.8234 36.5831C33.9536 34.8273 31.0144 34.9198 29.2586 36.7896C28.446 37.6551 27.9956 38.7988 28 39.9859Z" fill="#141516"/>
</g>
<defs>
<clipPath id="clip0_1_256">
<rect width="24" height="24" fill="white" transform="translate(28 28)"/>
</clipPath>
</defs>
</svg>
