<svg width="18" height="18" viewBox="0 0 18 18" fill="none" xmlns="http://www.w3.org/2000/svg">
<g clip-path="url(#clip0_1_475)">
<path d="M5.82054 4.98808L7.9062 2.90168L7.92195 13.1252C7.92195 13.7465 8.42561 14.2502 9.0469 14.2502C9.66819 14.2502 10.1719 13.7465 10.1719 13.1252L10.1561 2.91444L12.2298 4.98811C12.6614 5.435 13.3736 5.44738 13.8205 5.01575C14.2673 4.58412 14.2797 3.87195 13.8481 3.42506C13.839 3.41568 13.8298 3.40647 13.8205 3.39743L11.4116 0.988525C10.0936 -0.329462 7.95676 -0.329462 6.63877 0.98849L6.63873 0.988525L4.22986 3.3974C3.79823 3.84428 3.81061 4.55645 4.25749 4.98808C4.69345 5.40913 5.38459 5.40913 5.82054 4.98808Z" fill="#141516"/>
<path d="M16.8743 10.8753C16.253 10.8753 15.7493 11.379 15.7493 12.0003V15.4433C15.7489 15.6126 15.6118 15.7497 15.4426 15.7501H2.55663C2.38739 15.7497 2.25029 15.6126 2.2499 15.4433V12.0003C2.2499 11.379 1.74624 10.8753 1.12495 10.8753C0.503662 10.8753 0 11.379 0 12.0003V15.4433C0.00165227 16.8547 1.14534 17.9983 2.55663 18H15.4426C16.8539 17.9983 17.9975 16.8546 17.9992 15.4433V12.0003C17.9992 11.379 17.4956 10.8753 16.8743 10.8753Z" fill="#141516"/>
</g>
<defs>
<clipPath id="clip0_1_475">
<rect width="18" height="18" fill="white"/>
</clipPath>
</defs>
</svg>
