<svg width="264" height="80" viewBox="0 0 264 80" fill="none" xmlns="http://www.w3.org/2000/svg">
<rect width="80" height="80" rx="40" fill="#F1F3F5"/>
<g clip-path="url(#clip0_1_223)">
<path d="M43 48H33C31.6744 47.9984 30.4036 47.4711 29.4662 46.5338C28.5289 45.5964 28.0016 44.3256 28 43V33C28.0016 31.6744 28.5289 30.4036 29.4662 29.4662C30.4036 28.5289 31.6744 28.0016 33 28H43C44.3256 28.0016 45.5964 28.5289 46.5338 29.4662C47.4711 30.4036 47.9984 31.6744 48 33V43C47.9984 44.3256 47.4711 45.5964 46.5338 46.5338C45.5964 47.4711 44.3256 47.9984 43 48ZM52 47V34C52 33.7348 51.8946 33.4804 51.7071 33.2929C51.5196 33.1054 51.2652 33 51 33C50.7348 33 50.4804 33.1054 50.2929 33.2929C50.1054 33.4804 50 33.7348 50 34V47C50 47.7956 49.6839 48.5587 49.1213 49.1213C48.5587 49.6839 47.7956 50 47 50H34C33.7348 50 33.4804 50.1054 33.2929 50.2929C33.1054 50.4804 33 50.7348 33 51C33 51.2652 33.1054 51.5196 33.2929 51.7071C33.4804 51.8946 33.7348 52 34 52H47C48.3256 51.9984 49.5964 51.4711 50.5338 50.5338C51.4711 49.5964 51.9984 48.3256 52 47Z" fill="#141516"/>
</g>
<rect x="92" width="80" height="80" rx="40" fill="#F1F3F5"/>
<g clip-path="url(#clip1_1_223)">
<path d="M120 39.9859C119.99 42.5503 122.06 44.6374 124.625 44.6476C125.806 44.6523 126.944 44.2068 127.808 43.4017L134.728 46.5259C134.68 46.7846 134.653 47.0468 134.649 47.31C134.641 49.892 136.727 51.9918 139.309 52C141.892 52.0082 143.991 49.9216 144 47.3395C144.008 44.7575 141.921 42.6577 139.339 42.6495C137.796 42.6446 136.351 43.4011 135.475 44.6712L128.974 41.7358C129.436 40.6208 129.438 39.3684 128.979 38.252L135.471 35.3016C136.933 37.416 139.832 37.9448 141.946 36.4829C144.061 35.0211 144.589 32.122 143.128 30.0077C141.666 27.8934 138.767 27.3645 136.652 28.8264C135.393 29.697 134.643 31.1311 134.645 32.6619C134.649 32.9254 134.676 33.188 134.725 33.447L127.823 36.5831C125.954 34.8273 123.014 34.9198 121.259 36.7896C120.446 37.6551 119.996 38.7988 120 39.9859Z" fill="#141516"/>
</g>
<rect x="184" width="80" height="80" rx="40" fill="#F1F3F5"/>
<g clip-path="url(#clip2_1_223)">
<path d="M229.501 29.917C228.375 29.9345 227.273 30.2488 226.308 30.8283C225.342 31.4077 224.546 32.2317 224.001 33.217C223.456 32.2317 222.66 31.4077 221.694 30.8283C220.728 30.2488 219.627 29.9345 218.501 29.917C216.706 29.995 215.015 30.7802 213.797 32.1012C212.579 33.4222 211.933 35.1715 212.001 36.967C212.001 41.514 216.787 46.48 220.801 49.847C221.697 50.6001 222.83 51.013 224.001 51.013C225.172 51.013 226.305 50.6001 227.201 49.847C231.215 46.48 236.001 41.514 236.001 36.967C236.069 35.1715 235.423 33.4222 234.205 32.1012C232.987 30.7802 231.296 29.995 229.501 29.917ZM225.916 48.317C225.38 48.7684 224.702 49.0159 224.001 49.0159C223.3 49.0159 222.622 48.7684 222.086 48.317C216.948 44.006 214.001 39.87 214.001 36.967C213.933 35.7017 214.367 34.4607 215.21 33.5147C216.053 32.5687 217.236 31.9943 218.501 31.917C219.766 31.9943 220.949 32.5687 221.792 33.5147C222.635 34.4607 223.069 35.7017 223.001 36.967C223.001 37.2322 223.106 37.4866 223.294 37.6741C223.481 37.8616 223.736 37.967 224.001 37.967C224.266 37.967 224.521 37.8616 224.708 37.6741C224.896 37.4866 225.001 37.2322 225.001 36.967C224.933 35.7017 225.367 34.4607 226.21 33.5147C227.053 32.5687 228.236 31.9943 229.501 31.917C230.766 31.9943 231.949 32.5687 232.792 33.5147C233.635 34.4607 234.069 35.7017 234.001 36.967C234.001 39.87 231.054 44.006 225.916 48.313V48.317Z" fill="#141516"/>
</g>
<defs>
<clipPath id="clip0_1_223">
<rect width="24" height="24" fill="white" transform="translate(28 28)"/>
</clipPath>
<clipPath id="clip1_1_223">
<rect width="24" height="24" fill="white" transform="translate(120 28)"/>
</clipPath>
<clipPath id="clip2_1_223">
<rect width="24" height="24" fill="white" transform="translate(212 28)"/>
</clipPath>
</defs>
</svg>
