<svg width="80" height="80" viewBox="0 0 80 80" fill="none" xmlns="http://www.w3.org/2000/svg">
<rect width="80" height="80" rx="40" fill="#F1F3F5"/>
<g clip-path="url(#clip0_1_251)">
<path d="M36.8518 45.7C38.6091 47.4574 41.4584 47.4574 43.2158 45.7L43.2158 45.7L46.4278 42.488C47.0237 41.9125 47.0402 40.9629 46.4647 40.367C45.8891 39.7711 44.9396 39.7546 44.3437 40.3301C44.3312 40.3422 44.3189 40.3545 44.3068 40.367L41.5238 43.149L41.5008 29.5C41.5008 28.6716 40.8292 28 40.0008 28C39.1724 28 38.5008 28.6716 38.5008 29.5L38.5218 43.127L35.7608 40.366C35.1649 39.7905 34.2153 39.807 33.6398 40.4028C33.0784 40.9841 33.0784 41.9057 33.6398 42.487L36.8518 45.7Z" fill="#141516"/>
<path d="M50.5 42.5C49.6716 42.5 49 43.1716 49 44V48.591C48.9994 48.8166 48.8167 48.9995 48.591 49H31.409C31.1833 48.9994 31.0005 48.8166 31 48.591V44C31 43.1716 30.3284 42.5 29.5 42.5C28.6716 42.5 28 43.1716 28 44V48.591C28.0022 50.4728 29.5272 51.9978 31.409 52H48.591C50.4728 51.9978 51.9977 50.4728 52 48.591V44C52 43.1716 51.3284 42.5 50.5 42.5Z" fill="#141516"/>
</g>
<defs>
<clipPath id="clip0_1_251">
<rect width="24" height="24" fill="white" transform="translate(28 28)"/>
</clipPath>
</defs>
</svg>
