<svg width="80" height="80" viewBox="0 0 80 80" fill="none" xmlns="http://www.w3.org/2000/svg">
<rect width="80" height="80" rx="40" fill="#F1F3F5"/>
<g clip-path="url(#clip0_1_247)">
<path d="M29.172 47.119C28.4218 47.869 28.0002 48.8862 28 49.947V52H30.053C31.1138 51.9998 32.131 51.5782 32.881 50.828L46.224 37.485L42.515 33.776L29.172 47.119Z" fill="#141516"/>
<path d="M51.1457 28.855C50.9022 28.6112 50.613 28.4178 50.2947 28.2859C49.9764 28.154 49.6352 28.0861 49.2907 28.0861C48.9461 28.0861 48.605 28.154 48.2867 28.2859C47.9684 28.4178 47.6792 28.6112 47.4357 28.855L43.9297 32.362L47.6387 36.071L51.1457 32.565C51.3895 32.3215 51.5828 32.0323 51.7148 31.714C51.8467 31.3957 51.9146 31.0545 51.9146 30.71C51.9146 30.3654 51.8467 30.0243 51.7148 29.706C51.5828 29.3877 51.3895 29.0985 51.1457 28.855Z" fill="#141516"/>
</g>
<defs>
<clipPath id="clip0_1_247">
<rect width="24" height="24" fill="white" transform="translate(28 28)"/>
</clipPath>
</defs>
</svg>
