<svg width="150" height="56" viewBox="0 0 150 56" fill="none" xmlns="http://www.w3.org/2000/svg">
<rect width="150" height="56" rx="20" fill="#F1F3F5"/>
<g clip-path="url(#clip0_1_335)">
<path d="M71.8186 23.988L73.9042 21.9017L73.92 32.1252C73.92 32.7465 74.4237 33.2502 75.045 33.2502C75.6662 33.2502 76.1699 32.7465 76.1699 32.1252L76.1542 21.9144L78.2278 23.9881C78.6595 24.435 79.3716 24.4473 79.8185 24.0157C80.2654 23.5841 80.2778 22.8719 79.8461 22.425C79.8371 22.4156 79.8279 22.4064 79.8185 22.3974L77.4096 19.9885C76.0916 18.6705 73.9548 18.6705 72.6368 19.9885L72.6368 19.9885L70.2279 22.3974C69.7963 22.8443 69.8087 23.5564 70.2555 23.988C70.6915 24.4091 71.3826 24.4091 71.8186 23.988Z" fill="#141516"/>
<path d="M82.8743 29.8752C82.253 29.8752 81.7493 30.3789 81.7493 31.0002V34.4433C81.7489 34.6125 81.6118 34.7496 81.4426 34.75H68.5566C68.3874 34.7496 68.2503 34.6125 68.2499 34.4433V31.0002C68.2499 30.3789 67.7462 29.8752 67.125 29.8752C66.5037 29.8752 66 30.3789 66 31.0002V34.4433C66.0017 35.8546 67.1453 36.9983 68.5566 36.9999H81.4426C82.8539 36.9983 83.9975 35.8546 83.9992 34.4433V31.0002C83.9992 30.3789 83.4956 29.8752 82.8743 29.8752Z" fill="#141516"/>
</g>
<defs>
<clipPath id="clip0_1_335">
<rect width="18" height="18" fill="white" transform="translate(66 19)"/>
</clipPath>
</defs>
</svg>
