<svg width="16" height="17" viewBox="0 0 16 17" fill="none" xmlns="http://www.w3.org/2000/svg">
<g clip-path="url(#clip0_1_757)">
<path d="M13.9987 3.16666H11.932C11.6131 1.61572 10.2488 0.502 8.66534 0.5H7.332C5.74859 0.502 4.38428 1.61572 4.06534 3.16666H1.99869C1.6305 3.16666 1.33203 3.46513 1.33203 3.83331C1.33203 4.2015 1.6305 4.5 1.99869 4.5H2.66534V13.1667C2.66756 15.0067 4.15866 16.4978 5.99869 16.5H9.99869C11.8387 16.4978 13.3298 15.0067 13.332 13.1667V4.5H13.9987C14.3669 4.5 14.6653 4.20153 14.6653 3.83334C14.6653 3.46516 14.3669 3.16666 13.9987 3.16666ZM7.33203 11.8333C7.33203 12.2015 7.03356 12.5 6.66537 12.5C6.29716 12.5 5.99869 12.2015 5.99869 11.8333V7.83334C5.99869 7.46516 6.29716 7.16669 6.66534 7.16669C7.03353 7.16669 7.332 7.46516 7.332 7.83334V11.8333H7.33203ZM9.99869 11.8333C9.99869 12.2015 9.70022 12.5 9.33203 12.5C8.96384 12.5 8.66538 12.2015 8.66538 11.8333V7.83334C8.66538 7.46516 8.96384 7.16669 9.33203 7.16669C9.70022 7.16669 9.99869 7.46516 9.99869 7.83334V11.8333ZM5.44603 3.16666C5.72959 2.36819 6.48472 1.83434 7.33203 1.83331H8.66538C9.51269 1.83434 10.2678 2.36819 10.5514 3.16666H5.44603Z" fill="#EC1E1E"/>
</g>
<defs>
<clipPath id="clip0_1_757">
<rect width="16" height="16" fill="white" transform="translate(0 0.5)"/>
</clipPath>
</defs>
</svg>
