<svg width="24" height="24" viewBox="0 0 24 24" fill="none" xmlns="http://www.w3.org/2000/svg">
<g clip-path="url(#clip0_1_429)">
<path d="M8.85178 17.7C10.6091 19.4574 13.4584 19.4574 15.2158 17.7L15.2158 17.7L18.4278 14.488C19.0237 13.9125 19.0402 12.9629 18.4647 12.367C17.8891 11.7711 16.9396 11.7546 16.3437 12.3301C16.3312 12.3422 16.3189 12.3545 16.3068 12.367L13.5238 15.149L13.5008 1.5C13.5008 0.671578 12.8292 0 12.0008 0C11.1724 0 10.5008 0.671578 10.5008 1.5L10.5218 15.127L7.76082 12.366C7.16494 11.7905 6.21535 11.807 5.63982 12.4028C5.07839 12.9841 5.07839 13.9057 5.63982 14.487L8.85178 17.7Z" fill="#141516"/>
<path d="M22.5 14.5C21.6716 14.5 21 15.1716 21 16V20.591C20.9994 20.8166 20.8167 20.9995 20.591 21H3.40898C3.18333 20.9994 3.00052 20.8166 3 20.591V16C3 15.1716 2.32842 14.5 1.5 14.5C0.671578 14.5 0 15.1716 0 16V20.591C0.00220313 22.4728 1.52719 23.9978 3.40898 24H20.591C22.4728 23.9978 23.9977 22.4728 24 20.591V16C24 15.1716 23.3284 14.5 22.5 14.5Z" fill="#141516"/>
</g>
<defs>
<clipPath id="clip0_1_429">
<rect width="24" height="24" fill="white"/>
</clipPath>
</defs>
</svg>
