<svg width="16" height="17" viewBox="0 0 16 17" fill="none" xmlns="http://www.w3.org/2000/svg">
<g clip-path="url(#clip0_1_746)">
<path d="M0.781333 13.246C0.281202 13.746 0.000151033 14.4242 0 15.1313L0 16.5H1.36867C2.07585 16.4999 2.75402 16.2188 3.254 15.7187L12.1493 6.82334L9.67667 4.35068L0.781333 13.246Z" fill="#141516"/>
<path d="M15.4279 1.06999C15.2655 0.907485 15.0727 0.778565 14.8605 0.690606C14.6483 0.602647 14.4209 0.557373 14.1912 0.557373C13.9615 0.557373 13.734 0.602647 13.5218 0.690606C13.3096 0.778565 13.1169 0.907485 12.9545 1.06999L10.6172 3.40799L13.0899 5.88066L15.4279 3.54333C15.5904 3.38099 15.7193 3.18821 15.8072 2.97601C15.8952 2.76382 15.9405 2.53637 15.9405 2.30666C15.9405 2.07696 15.8952 1.84951 15.8072 1.63731C15.7193 1.42511 15.5904 1.23234 15.4279 1.06999Z" fill="#141516"/>
</g>
<defs>
<clipPath id="clip0_1_746">
<rect width="16" height="16" fill="white" transform="translate(0 0.5)"/>
</clipPath>
</defs>
</svg>
