<svg width="24" height="23" viewBox="0 0 24 23" fill="none" xmlns="http://www.w3.org/2000/svg">
<path d="M17.5009 0.916992C16.3749 0.934507 15.2734 1.24885 14.3077 1.82826C13.342 2.40768 12.5463 3.23166 12.0009 4.21699C11.4556 3.23166 10.6599 2.40768 9.69417 1.82826C8.72848 1.24885 7.62698 0.934507 6.50094 0.916992C4.70588 0.994983 3.01464 1.78025 1.79672 3.10122C0.578794 4.4222 -0.0668157 6.17152 0.000934853 7.96699C0.000934853 12.514 4.78693 17.48 8.80093 20.847C9.69715 21.6001 10.8303 22.013 12.0009 22.013C13.1716 22.013 14.3047 21.6001 15.2009 20.847C19.2149 17.48 24.0009 12.514 24.0009 7.96699C24.0687 6.17152 23.4231 4.4222 22.2052 3.10122C20.9872 1.78025 19.296 0.994983 17.5009 0.916992ZM13.9159 19.317C13.3799 19.7684 12.7017 20.0159 12.0009 20.0159C11.3002 20.0159 10.622 19.7684 10.0859 19.317C4.94793 15.006 2.00093 10.87 2.00093 7.96699C1.93258 6.70171 2.3673 5.46072 3.2103 4.51469C4.0533 3.56866 5.23617 2.99434 6.50094 2.91699C7.7657 2.99434 8.94857 3.56866 9.79157 4.51469C10.6346 5.46072 11.0693 6.70171 11.0009 7.96699C11.0009 8.23221 11.1063 8.48656 11.2938 8.6741C11.4814 8.86164 11.7357 8.96699 12.0009 8.96699C12.2662 8.96699 12.5205 8.86164 12.708 8.6741C12.8956 8.48656 13.0009 8.23221 13.0009 7.96699C12.9326 6.70171 13.3673 5.46072 14.2103 4.51469C15.0533 3.56866 16.2362 2.99434 17.5009 2.91699C18.7657 2.99434 19.9486 3.56866 20.7916 4.51469C21.6346 5.46072 22.0693 6.70171 22.0009 7.96699C22.0009 10.87 19.0539 15.006 13.9159 19.313V19.317Z" fill="#141516"/>
</svg>
