<svg width="20" height="20" viewBox="0 0 20 20" fill="none" xmlns="http://www.w3.org/2000/svg">
<g clip-path="url(#clip0_18_1759)">
<path d="M8.67543 16.322C7.35206 17.6943 5.19689 17.8209 3.72201 16.6129C2.84364 15.8524 2.39496 14.7089 2.52178 13.554C2.63161 12.7025 3.02957 11.9142 3.64949 11.3202L6.04662 8.92145C6.53468 8.43323 6.53468 7.64184 6.04662 7.15362C5.5584 6.66556 4.76701 6.66556 4.27879 7.15362L1.93253 9.50074C0.863032 10.5321 0.18857 11.9054 0.0263129 13.3822C-0.276752 16.7086 2.17406 19.6508 5.50039 19.9539C7.2867 20.1166 9.05312 19.478 10.3224 18.2107L12.8295 15.7044C13.3176 15.2161 13.3176 14.4247 12.8295 13.9365C12.3413 13.4485 11.5499 13.4485 11.0617 13.9365L8.67543 16.322Z" fill="#141516"/>
<path d="M17.6372 1.22252C15.1482 -0.606177 11.6919 -0.319483 9.53817 1.89433L7.17855 4.25477C6.69048 4.74299 6.69048 5.53439 7.17855 6.0226C7.66676 6.51066 8.45816 6.51066 8.94638 6.0226L11.3435 3.62798C12.638 2.28917 14.7323 2.13836 16.2052 3.27791C17.7213 4.52103 17.9425 6.75774 16.6994 8.27377C16.6266 8.3625 16.5496 8.44763 16.4686 8.52889L13.9615 11.036C13.4734 11.5243 13.4734 12.3157 13.9615 12.8039C14.4497 13.2919 15.2411 13.2919 15.7293 12.8039L18.2364 10.2967C20.5968 7.92886 20.5907 4.09592 18.2228 1.73559C18.0388 1.5522 17.8432 1.38084 17.6372 1.22252Z" fill="#141516"/>
<path d="M7.17869 11.0383L11.0632 7.15377C11.5515 6.66551 12.3431 6.66551 12.8313 7.15377C13.3196 7.64202 13.3196 8.43362 12.8313 8.92187L8.9468 12.8064C8.45854 13.2946 7.66695 13.2946 7.17869 12.8064C6.69044 12.3181 6.69044 11.5265 7.17869 11.0383Z" fill="#141516"/>
</g>
<defs>
<clipPath id="clip0_18_1759">
<rect width="20" height="20" fill="white"/>
</clipPath>
</defs>
</svg>
