<svg width="16" height="17" viewBox="0 0 16 17" fill="none" xmlns="http://www.w3.org/2000/svg">
<path d="M8.0016 11.1657C9.47381 11.1657 10.6673 9.97219 10.6673 8.49999C10.6673 7.02778 9.47381 5.83432 8.0016 5.83432C6.5294 5.83432 5.33594 7.02778 5.33594 8.49999C5.33594 9.97219 6.5294 11.1657 8.0016 11.1657Z" fill="#141516"/>
<path d="M15.5112 6.77998C14.4776 5.0966 12.1265 2.27231 7.99998 2.27231C3.87352 2.27231 1.52239 5.0966 0.488772 6.77998C-0.162924 7.83406 -0.162924 9.16594 0.488772 10.22C1.52239 11.9034 3.87352 14.7277 7.99998 14.7277C12.1265 14.7277 14.4776 11.9034 15.5112 10.22C16.1629 9.16594 16.1629 7.83406 15.5112 6.77998ZM7.99998 12.4985C5.79168 12.4985 4.00147 10.7083 4.00147 8.5C4.00147 6.29169 5.79168 4.50148 7.99998 4.50148C10.2083 4.50148 11.9985 6.29169 11.9985 8.5C11.9963 10.7074 10.2074 12.4963 7.99998 12.4985Z" fill="#141516"/>
</svg>
